<svg fill="#000" width="800" height="800" viewBox="144 144 512 512" xmlns="http://www.w3.org/2000/svg"><g><path d="m605.74 575.74c6.1016-46.094-4.75-93.586-6.9336-139.69-2.3047-48.664 8.7188-98.406-2.7695-146.43-.46094-1.9258-3.0977-1.625-3.3516.046875-.13281-.046875-.24219-.11719-.39062-.14062-29.453-5.1133-58.984-9.7695-88.574-13.98 3.1523-8.8125 5.1719-18.094 6.7773-27.254 2.7891-15.887 3.9102-31.418-3.0039-46.422-10.836-23.512-35.773-45.191-62.672-43.926-10.215.48047-20.297 2.9141-29.926 6.7422-14.332-4.2461-29.816-4.1328-43.5 2.4219-23.402 11.215-41.625 35.871-54.27 57.809-5.2266 9.0664-9.8711 18.703-13.793 28.68-41.594-3.2461-52.094-4.4336-65.176-3.5039-3.4219-1.7188-5.1562-.80078-3.918 1.5977-2.543.011719-1.8242 1.6445-3.0664 13.07-.29297 2.7109-.93359 5.4922-.76562 8.2031-9.9688 2.6875-19.934 5.3789-29.785 8.4609-1.5859-.15625-3.0781-.65234-3.1836.98828-.082031.027343-.16016.050781-.24219.074219-1.3984-.32422-3.1406.62109-2.9141 2.4922 10.871 89.859-7.8242 213.32.23047 266.79 1.2227 8.1211 3.1094 16.117 4.8789 24.133 1.3281 6.0195 1.3438 13.16 5.7695 17.906 6.3633 6.8203 19.941 8.1172 28.375 10.727 56.785 17.566 79.582 20.879 136.95 29.43 33.113 4.9375 128.88 16.191 157.62-1.3438 2.2305-1.3594 4.2383-2.8086 6.0703-4.3242 23.664-5.1055 46.156-31.895 70.281-48.695 1.1641-.8125 1.1094-2.0547.46875-2.9141.40234-.12109.74609-.42188.81641-.94922zm-26.676-283.85c-20.527 4.2617-40.691 10.469-61.465 13.66-1.3164.20312-1.9219 2.1094-.71094 2.8867 4.0859 2.6055 8.3164 5.0938 12.641 7.4297-12.297-1.5078-.55859.42969-63.262-6.293 2.0312-9.6289 4.9102-23.859 6.3203-33.578 7.4453.98047 14.891 1.9844 22.328 3.0156-5.625 14.52-7.1758 14.344-5.6289 16.57-2.5312-1.9375-4.1914-6.707-5.9727-5.8398-4.9531 2.4062 2.8008 11 5.5391 12.375 5.8867 2.957 15.195-.33594 18.035-6.2266.61328-1.2695-.26953-3.1289-1.8945-2.6914-4.3086 1.1602-8.8711 4.4141-12.977 3.6289 2.5781-.65625 8.5547-13.363 9.9883-16.836 25.738 3.6211 51.426 7.5938 77.059 11.898zm-151.12-125.23c9.8164-2.6562 21.602-3.6875 31.406-.64453 13.035 4.0469 24.277 14.676 32.59 25.188 18.66 23.59 14.535 55.797 4.6445 83.363-7.7852-1.0898-15.574-2.1445-23.367-3.1719 1.1953-9.6797 1.6992-19.418.92188-29.211-1.9609-24.668-13.242-47.859-32.645-63.504-5.3438-4.3086-11.379-7.9688-17.801-10.766 1.4102-.44141 2.8281-.87109 4.25-1.2539zm34.582 59.555c3.7266 14.336 3.4961 29.344 1.7305 44.016-36.801-4.7305-74.969-9.0117-124.68-13.523 6.4688-14.969 12.848-29.848 22.363-43.559 12.492-18.008 30.715-32.586 51.066-41.281 24.098 7.8711 43.234 30.156 49.523 54.348zm-137.21-2.9375c16.566-26.328 42.211-58.562 76.879-53.895.625.085938 1.2461.19141 1.8672.29688-13.566 7.125-25.867 16.906-35.82 27.824-14.012 15.371-26.746 41.414-33.375 58.781-11.355-1.0195-9.4648-.88672-25.363-2.1641 4.3398-10.566 9.5273-20.855 15.812-30.844zm-17.465 35.008c21.59 1.9258 9.543.83594 25.449 2.293-1.7852 5.1523-3.2656 10.367-4.2188 15.613-.16406.91406 1.1367 1.2578 1.5234.45312 2.5117-5.1875 4.8359-10.426 7.1133-15.66 46.617 4.3242 85.59 8.6719 125.93 13.855-1.8828 13.305-3.9648 20.969-6.6133 33.754-5.7227-.61719-153.53-16.559-159.24-17.164 2.6094-11.332 5.9102-22.379 10.062-33.145zm-77.863 18.617c9.6172-2.3164 19.762-3.8828 28.758-8.0742 1.0234-.47656.57812-2.25-.55469-2.1797-8.2773.52734-16.254 3.082-24.227 5.3438 1.9766-5.3984 1.6172-13.039 1.9805-18.102 3.0156 2.7812 6.7383 3.5 17.41 12.828 1.1875 1.0352 3.1172-.64453 2.0742-1.9102-3.4922-4.2461-7.2266-7.2891-14.422-12.848 12.691 2.3789 17.312 1.9219 60.73 5.7773-3.9766 10.773-7.0664 21.906-9.0664 33.145-28.398-2.9961-56.805-5.918-85.227-8.7539 7.5391-1.6211 15.039-3.418 22.543-5.2266zm236.88 358.61c-74.195.78125-178.06-16.371-250.59-41.527-8.1406-2.8242-9.1992-8.3477-10.824-16.25-1.3555-6.6055-2.8828-13.18-4.1211-19.809-10.684-57.254 11.332-180.68-2.5195-273.59-.023438-.15234-.0625-.28906-.10547-.42188.085938-.015625.17188-.035156.26172-.050781 30.836 5.0859 61.691 9.6875 92.602 13.906-.81641 5.9453-1.3125 11.902-1.4609 17.832-.046875 1.918 2.7305 2.4375 3.0312.43359.89844-5.9492 1.9375-11.828 3.1289-17.633 50.094 6.7695 108.87 13.504 159.11 18.707-1.2812 7.3516-2.1641 14.738-2.1172 22.195.019531 3.5273 4.8086 2.9805 5.6367.17578 2.0781-7.0391 3.8711-14.215 5.5078-21.434 65.688 6.7031 69.602 7.8516 81.535 6.7109-3.2617 61.27-1.1484 95.121-.6875 245.57.046876 15.297 1.6133 31.039-7.1875 44.5-14.359 21.961-47.863 20.438-71.203 20.684zm73.723-13.727c1.1328-1.4219 2.1562-2.8906 3.0742-4.4023 11.992-8.4023 24.992-34.773 32.672-48.863 6.0273 4.1172 15.129 9.457 22.781 9.3945-19.715 13.188-35.445 34.613-58.527 43.871zm35.215-59.512c.66016-52.094-8.0547-101.91-7.5195-129.55.011719-.57031-.81641-.57812-.875-.023438-3.2852 32.512 3.3516 107.48 7.293 129.7-.60938.19531-1.1562.58984-1.4453 1.1211-13.105 23.996-12.121 25.355-23.969 39.859 3.4375-14.148 1.9961-11.117 1.7734-158.39.0-.19141.71875-104.24-2.3281-120.7 1.6641-.94141 1.2695-3.8828-.64453-4.5234-.54297-.17969-1.0938-.34375-1.6445-.51172-7.3008-4.3281-15.035-8.1484-22.887-11.465 23.027-4.0234 45.617-10.16 68.754-13.758.34766-.054687.63672-.17578.89062-.32812 7.4219 48.773-2.1211 98.023.72656 147.06 2.5781 44.473 8.6758 88.441 9.1172 133.05-24.238-7.0938-24.922-11.27-27.242-11.531z"/><path d="m294.24 332.61c10.102-4.4766 7.2383-14.309 3.3672-12.062-3.5 2.0312-5.6992 6.1094-10.34 5.5547-8.918-1.0625-8.8789-14.562-12.152-10.836-5.1055 5.8125 5.8828 23.211 19.125 17.344z"/><path d="m459.78 357.56c8.1211-2.0156 13.961-10.715 14.637-18.746.17578-2.0703-2.5547-3.4141-4.0664-1.9531-3.5 3.3828-5.3477 8.2031-9.3086 11.105-6.2617 4.5898-11.262-.26953-14.234-5.8516-1.582-2.9727-6.9688-1.2031-6.3281 2.1562 1.6992 8.9609 10.035 15.586 19.301 13.289z"/><path d="m339.45 276.01c.046875-1.0742-1.4258-1.6367-2.1328-.85156-2.75 3.0547-6.3594 3.3984-9.9297 1.6641-1.6289-.78906-4.3047-2.5859-4.8594-4.4961-.29297-1.0117-2.0781-1.1172-2.0195.12109.10547 2.1562.066406 3.6172 1.6445 5.4062 5.2031 5.8867 16.961 6.1055 17.297-1.8438z"/><path d="m235.84 410.84c21.059-12.332 46.941-17.758 71.215-16.289 49.547 2.9961 123.88 53.367 169.56 50.316 11.008-.73438 18.781-3.7422 27.273-10.395 2.2383-1.7539-.29297-5.1094-2.7188-4.0039-36.223 16.512-68.438-2.2422-144.93-30.727-41.633-15.504-82.957-13.168-121.24 9.9102-.80469.48047.035156 1.6562.83984 1.1875z"/><path d="m491.03 520.37c-9.2773 2.0859-17.098 7.668-26.258 10.098-47.516 12.605-94.648-41.156-169.54-47.73-19.086-1.6758-45-2.9453-61.301 8.8203-1.1992.86328-.21484 2.7109 1.1562 2.0273 16.105-8.0547 54.707-5.4414 72.473-2.3516 77.59 13.496 120.41 76.832 185.04 33.715 2.1328-1.4219 1.3555-5.2383-1.5781-4.5781z"/><path d="m517.04 559.64c2.4961 21.164-3.6758 42.938-17.543 59.223-.32422.38281.16406.96094.54297.58984 16.242-15.898 23.32-37.633 18.594-59.988-.21094-.99219-1.7188-.87109-1.5938.17578z"/><path d="m220.42 535.13c-.066406-.75391-1.2578-.88672-1.3711-.089843-2.1602 15.438 2.5625 31.582 10.277 44.891.30078.51953 1.2461.14453.99219-.43359-6.3555-14.543-8.5078-28.719-9.8984-44.367z"/><path d="m220.75 341.22c-.14062-10-1.8125-19.977-1.8633-30.012-.003906-.87891-1.3711-.88672-1.5156-.054687-1.7305 9.9375-2.3555 20.891 1.3203 30.531.39063 1.0156 2.0742.56641 2.0586-.46484z"/></g></svg>